<svg xmlns="http://www.w3.org/2000/svg" xmlns:xlink="http://www.w3.org/1999/xlink" width="1920" zoomAndPan="magnify" viewBox="0 0 1440 809.999993" height="1080" preserveAspectRatio="xMidYMid meet" version="1.0"><defs><clipPath id="a740466c33"><path d="M 419 105.085938 L 1021 105.085938 L 1021 697.613281 L 419 697.613281 Z M 419 105.085938 " clip-rule="nonzero"/></clipPath><clipPath id="71ef6944a8"><path d="M 780.273438 125.5 L 978.136719 271.398438 C 1014.214844 298.003906 1029.34375 344.632812 1015.75 387.351562 L 939.769531 626.160156 C 926.226562 668.714844 886.707031 697.613281 842.050781 697.613281 L 597.796875 697.613281 C 553.140625 697.613281 513.621094 668.714844 500.082031 626.160156 L 424.097656 387.351562 C 410.507812 344.632812 425.632812 298.003906 461.714844 271.398438 L 659.574219 125.5 C 695.457031 99.042969 744.390625 99.042969 780.273438 125.5 Z M 780.273438 125.5 " clip-rule="nonzero"/></clipPath><clipPath id="690ffdb081"><path d="M 0 0.0859375 L 602 0.0859375 L 602 592.613281 L 0 592.613281 Z M 0 0.0859375 " clip-rule="nonzero"/></clipPath><clipPath id="de08b33124"><path d="M 361.273438 20.5 L 559.136719 166.398438 C 595.214844 193.003906 610.34375 239.632812 596.75 282.351562 L 520.769531 521.160156 C 507.226562 563.714844 467.707031 592.613281 423.050781 592.613281 L 178.796875 592.613281 C 134.140625 592.613281 94.621094 563.714844 81.082031 521.160156 L 5.097656 282.351562 C -8.492188 239.632812 6.632812 193.003906 42.714844 166.398438 L 240.574219 20.5 C 276.457031 -5.957031 325.390625 -5.957031 361.273438 20.5 Z M 361.273438 20.5 " clip-rule="nonzero"/></clipPath><clipPath id="873d0b14a1"><rect x="0" width="602" y="0" height="593"/></clipPath><clipPath id="9fa431f613"><path d="M 544.191406 231 L 895.808594 231 L 895.808594 636.976562 L 544.191406 636.976562 Z M 544.191406 231 " clip-rule="nonzero"/></clipPath><clipPath id="facea08258"><path d="M 726.484375 232.816406 L 889.324219 327.5625 C 893.339844 329.898438 895.808594 334.191406 895.808594 338.835938 L 895.808594 528.410156 C 895.808594 533.054688 893.339844 537.347656 889.324219 539.683594 L 726.484375 634.425781 C 722.476562 636.757812 717.523438 636.757812 713.515625 634.425781 L 550.675781 539.683594 C 546.660156 537.347656 544.191406 533.054688 544.191406 528.410156 L 544.191406 338.835938 C 544.191406 334.191406 546.660156 329.898438 550.675781 327.5625 L 713.515625 232.816406 C 717.523438 230.484375 722.476562 230.484375 726.484375 232.816406 Z M 726.484375 232.816406 " clip-rule="nonzero"/></clipPath><clipPath id="c70cd2974b"><path d="M 0.191406 0 L 351.808594 0 L 351.808594 405.960938 L 0.191406 405.960938 Z M 0.191406 0 " clip-rule="nonzero"/></clipPath><clipPath id="b5cc16ee7c"><path d="M 182.484375 1.816406 L 345.324219 96.5625 C 349.339844 98.898438 351.808594 103.191406 351.808594 107.835938 L 351.808594 297.410156 C 351.808594 302.054688 349.339844 306.347656 345.324219 308.683594 L 182.484375 403.425781 C 178.476562 405.757812 173.523438 405.757812 169.515625 403.425781 L 6.675781 308.683594 C 2.660156 306.347656 0.191406 302.054688 0.191406 297.410156 L 0.191406 107.835938 C 0.191406 103.191406 2.660156 98.898438 6.675781 96.5625 L 169.515625 1.816406 C 173.523438 -0.515625 178.476562 -0.515625 182.484375 1.816406 Z M 182.484375 1.816406 " clip-rule="nonzero"/></clipPath><clipPath id="4e63c5007e"><rect x="0" width="352" y="0" height="406"/></clipPath><clipPath id="94145f227f"><path d="M 690.511719 374.371094 L 749.496094 374.371094 L 749.496094 405 L 690.511719 405 Z M 690.511719 374.371094 " clip-rule="nonzero"/></clipPath><clipPath id="837e9e0c2e"><path d="M 720 374.371094 C 703.714844 374.371094 690.511719 381.226562 690.511719 389.6875 C 690.511719 398.144531 703.714844 405 720 405 C 736.285156 405 749.488281 398.144531 749.488281 389.6875 C 749.488281 381.226562 736.285156 374.371094 720 374.371094 Z M 720 374.371094 " clip-rule="nonzero"/></clipPath><clipPath id="1be536543f"><path d="M 0.511719 0.371094 L 59.496094 0.371094 L 59.496094 31 L 0.511719 31 Z M 0.511719 0.371094 " clip-rule="nonzero"/></clipPath><clipPath id="c984833217"><path d="M 30 0.371094 C 13.714844 0.371094 0.511719 7.226562 0.511719 15.6875 C 0.511719 24.144531 13.714844 31 30 31 C 46.285156 31 59.488281 24.144531 59.488281 15.6875 C 59.488281 7.226562 46.285156 0.371094 30 0.371094 Z M 30 0.371094 " clip-rule="nonzero"/></clipPath><clipPath id="20693a97a6"><rect x="0" width="60" y="0" height="31"/></clipPath><clipPath id="5e0ce186fb"><path d="M 792 464 L 832 464 L 832 516 L 792 516 Z M 792 464 " clip-rule="nonzero"/></clipPath><clipPath id="3d51c745d3"><path d="M 797.851562 461.21875 L 835.644531 468.675781 L 825.617188 519.457031 L 787.828125 511.996094 Z M 797.851562 461.21875 " clip-rule="nonzero"/></clipPath><clipPath id="115ea9adf5"><path d="M 816.75 464.945312 C 806.3125 462.886719 795.613281 472.5625 792.851562 486.558594 C 790.085938 500.558594 796.308594 513.574219 806.742188 515.632812 C 817.179688 517.695312 827.878906 508.015625 830.640625 494.019531 C 833.402344 480.023438 827.183594 467.007812 816.75 464.945312 Z M 816.75 464.945312 " clip-rule="nonzero"/></clipPath><clipPath id="e974e4d444"><path d="M 0 0 L 40 0 L 40 52 L 0 52 Z M 0 0 " clip-rule="nonzero"/></clipPath><clipPath id="4322a65c61"><path d="M 5.851562 -2.78125 L 43.644531 4.675781 L 33.617188 55.457031 L -4.171875 47.996094 Z M 5.851562 -2.78125 " clip-rule="nonzero"/></clipPath><clipPath id="b75ebf7ace"><path d="M 24.75 0.945312 C 14.3125 -1.113281 3.613281 8.5625 0.851562 22.558594 C -1.914062 36.558594 4.308594 49.574219 14.742188 51.632812 C 25.179688 53.695312 35.878906 44.015625 38.640625 30.019531 C 41.402344 16.023438 35.183594 3.007812 24.75 0.945312 Z M 24.75 0.945312 " clip-rule="nonzero"/></clipPath><clipPath id="86b2bc7cc2"><rect x="0" width="40" y="0" height="52"/></clipPath><clipPath id="7744ec2bd9"><path d="M 605 463 L 645 463 L 645 515 L 605 515 Z M 605 463 " clip-rule="nonzero"/></clipPath><clipPath id="3fbc89c695"><path d="M 600.890625 467.195312 L 638.675781 459.714844 L 648.730469 510.488281 L 610.945312 517.972656 Z M 600.890625 467.195312 " clip-rule="nonzero"/></clipPath><clipPath id="21100f0683"><path d="M 619.785156 463.457031 C 609.351562 465.523438 603.136719 478.542969 605.910156 492.535156 C 608.679688 506.53125 619.386719 516.203125 629.820312 514.136719 C 640.253906 512.070312 646.464844 499.050781 643.695312 485.054688 C 640.921875 471.058594 630.21875 461.390625 619.785156 463.457031 Z M 619.785156 463.457031 " clip-rule="nonzero"/></clipPath><clipPath id="474bab4f55"><path d="M 0 0 L 40 0 L 40 52 L 0 52 Z M 0 0 " clip-rule="nonzero"/></clipPath><clipPath id="7d094a37e3"><path d="M -4.109375 4.195312 L 33.675781 -3.285156 L 43.730469 47.488281 L 5.945312 54.972656 Z M -4.109375 4.195312 " clip-rule="nonzero"/></clipPath><clipPath id="985d4a14bf"><path d="M 14.785156 0.457031 C 4.351562 2.523438 -1.863281 15.542969 0.910156 29.535156 C 3.679688 43.53125 14.386719 53.203125 24.820312 51.136719 C 35.253906 49.070312 41.464844 36.050781 38.695312 22.054688 C 35.921875 8.058594 25.21875 -1.609375 14.785156 0.457031 Z M 14.785156 0.457031 " clip-rule="nonzero"/></clipPath><clipPath id="e00cf8334b"><rect x="0" width="40" y="0" height="52"/></clipPath><clipPath id="5af8bfefc5"><path d="M 554 492 L 592 492 L 592 541 L 554 541 Z M 554 492 " clip-rule="nonzero"/></clipPath><clipPath id="8f1a450735"><path d="M 550.726562 495.816406 L 586.1875 488.796875 L 595.621094 536.445312 L 560.160156 543.464844 Z M 550.726562 495.816406 " clip-rule="nonzero"/></clipPath><clipPath id="69ffead615"><path d="M 568.457031 492.308594 C 558.664062 494.246094 552.835938 506.464844 555.433594 519.597656 C 558.035156 532.730469 568.082031 541.804688 577.875 539.867188 C 587.664062 537.929688 593.496094 525.710938 590.894531 512.578125 C 588.292969 499.441406 578.246094 490.367188 568.457031 492.308594 Z M 568.457031 492.308594 " clip-rule="nonzero"/></clipPath><clipPath id="061503c9dd"><path d="M 0 0 L 38 0 L 38 49 L 0 49 Z M 0 0 " clip-rule="nonzero"/></clipPath><clipPath id="1848000018"><path d="M -3.273438 3.816406 L 32.1875 -3.203125 L 41.621094 44.445312 L 6.160156 51.464844 Z M -3.273438 3.816406 " clip-rule="nonzero"/></clipPath><clipPath id="00327e2534"><path d="M 14.457031 0.308594 C 4.664062 2.246094 -1.164062 14.464844 1.433594 27.597656 C 4.035156 40.730469 14.082031 49.804688 23.875 47.867188 C 33.664062 45.929688 39.496094 33.710938 36.894531 20.578125 C 34.292969 7.441406 24.246094 -1.632812 14.457031 0.308594 Z M 14.457031 0.308594 " clip-rule="nonzero"/></clipPath><clipPath id="7d782168f9"><rect x="0" width="38" y="0" height="49"/></clipPath><clipPath id="f82b4ad6c8"><path d="M 661 542 L 698 542 L 698 591 L 661 591 Z M 661 542 " clip-rule="nonzero"/></clipPath><clipPath id="16f2454b3c"><path d="M 657 545.898438 L 692.460938 538.878906 L 701.894531 586.527344 L 666.433594 593.546875 Z M 657 545.898438 " clip-rule="nonzero"/></clipPath><clipPath id="d45ef8b24a"><path d="M 674.730469 542.386719 C 664.9375 544.328125 659.109375 556.546875 661.707031 569.679688 C 664.308594 582.8125 674.355469 591.886719 684.148438 589.949219 C 693.9375 588.011719 699.769531 575.792969 697.167969 562.65625 C 694.566406 549.523438 684.523438 540.449219 674.730469 542.386719 Z M 674.730469 542.386719 " clip-rule="nonzero"/></clipPath><clipPath id="4937c1d3e2"><path d="M 0 0 L 37 0 L 37 49 L 0 49 Z M 0 0 " clip-rule="nonzero"/></clipPath><clipPath id="0ab508293e"><path d="M -4 3.898438 L 31.460938 -3.121094 L 40.894531 44.527344 L 5.433594 51.546875 Z M -4 3.898438 " clip-rule="nonzero"/></clipPath><clipPath id="5310083755"><path d="M 13.730469 0.386719 C 3.9375 2.328125 -1.890625 14.546875 0.707031 27.679688 C 3.308594 40.8125 13.355469 49.886719 23.148438 47.949219 C 32.9375 46.011719 38.769531 33.792969 36.167969 20.65625 C 33.566406 7.523438 23.523438 -1.550781 13.730469 0.386719 Z M 13.730469 0.386719 " clip-rule="nonzero"/></clipPath><clipPath id="3bbc0069ad"><rect x="0" width="37" y="0" height="49"/></clipPath><clipPath id="17060f910c"><path d="M 557 380 L 595 380 L 595 430 L 557 430 Z M 557 380 " clip-rule="nonzero"/></clipPath><clipPath id="f6868c2646"><path d="M 553.726562 384.730469 L 589.1875 377.707031 L 598.621094 425.355469 L 563.160156 432.378906 Z M 553.726562 384.730469 " clip-rule="nonzero"/></clipPath><clipPath id="8cf9dab18b"><path d="M 571.457031 381.21875 C 561.664062 383.15625 555.835938 395.375 558.433594 408.511719 C 561.035156 421.644531 571.082031 430.71875 580.875 428.78125 C 590.664062 426.839844 596.496094 414.621094 593.894531 401.488281 C 591.292969 388.355469 581.246094 379.28125 571.457031 381.21875 Z M 571.457031 381.21875 " clip-rule="nonzero"/></clipPath><clipPath id="3cb02a6bd8"><path d="M 0 0 L 38 0 L 38 50 L 0 50 Z M 0 0 " clip-rule="nonzero"/></clipPath><clipPath id="af023adf63"><path d="M -3.273438 4.730469 L 32.1875 -2.292969 L 41.621094 45.355469 L 6.160156 52.378906 Z M -3.273438 4.730469 " clip-rule="nonzero"/></clipPath><clipPath id="41a6cfbbac"><path d="M 14.457031 1.21875 C 4.664062 3.15625 -1.164062 15.375 1.433594 28.511719 C 4.035156 41.644531 14.082031 50.71875 23.875 48.78125 C 33.664062 46.839844 39.496094 34.621094 36.894531 21.488281 C 34.292969 8.355469 24.246094 -0.71875 14.457031 1.21875 Z M 14.457031 1.21875 " clip-rule="nonzero"/></clipPath><clipPath id="cf3a703bd5"><rect x="0" width="38" y="0" height="50"/></clipPath><clipPath id="3c3d57c263"><path d="M 658 425 L 695 425 L 695 474 L 658 474 Z M 658 425 " clip-rule="nonzero"/></clipPath><clipPath id="3390e336de"><path d="M 654 429.628906 L 689.460938 422.609375 L 698.894531 470.257812 L 663.433594 477.277344 Z M 654 429.628906 " clip-rule="nonzero"/></clipPath><clipPath id="743a713ef4"><path d="M 671.730469 426.117188 C 661.9375 428.058594 656.109375 440.277344 658.707031 453.410156 C 661.308594 466.542969 671.355469 475.617188 681.148438 473.679688 C 690.9375 471.738281 696.769531 459.523438 694.167969 446.386719 C 691.566406 433.253906 681.523438 424.179688 671.730469 426.117188 Z M 671.730469 426.117188 " clip-rule="nonzero"/></clipPath><clipPath id="5c50ed4733"><path d="M 0 0 L 37 0 L 37 49 L 0 49 Z M 0 0 " clip-rule="nonzero"/></clipPath><clipPath id="422db0fb43"><path d="M -4 4.628906 L 31.460938 -2.390625 L 40.894531 45.257812 L 5.433594 52.277344 Z M -4 4.628906 " clip-rule="nonzero"/></clipPath><clipPath id="c853703fe2"><path d="M 13.730469 1.117188 C 3.9375 3.058594 -1.890625 15.277344 0.707031 28.410156 C 3.308594 41.542969 13.355469 50.617188 23.148438 48.679688 C 32.9375 46.738281 38.769531 34.523438 36.167969 21.386719 C 33.566406 8.253906 23.523438 -0.820312 13.730469 1.117188 Z M 13.730469 1.117188 " clip-rule="nonzero"/></clipPath><clipPath id="ecaa306540"><rect x="0" width="37" y="0" height="49"/></clipPath><clipPath id="9184cfe885"><path d="M 690.511719 316.753906 L 749.496094 316.753906 L 749.496094 347.382812 L 690.511719 347.382812 Z M 690.511719 316.753906 " clip-rule="nonzero"/></clipPath><clipPath id="746a2f8b04"><path d="M 720 316.753906 C 703.714844 316.753906 690.511719 323.613281 690.511719 332.070312 C 690.511719 340.527344 703.714844 347.382812 720 347.382812 C 736.285156 347.382812 749.488281 340.527344 749.488281 332.070312 C 749.488281 323.613281 736.285156 316.753906 720 316.753906 Z M 720 316.753906 " clip-rule="nonzero"/></clipPath><clipPath id="b6bcbcafb4"><path d="M 0.511719 0.753906 L 59.496094 0.753906 L 59.496094 31.382812 L 0.511719 31.382812 Z M 0.511719 0.753906 " clip-rule="nonzero"/></clipPath><clipPath id="d839f963d7"><path d="M 30 0.753906 C 13.714844 0.753906 0.511719 7.613281 0.511719 16.070312 C 0.511719 24.527344 13.714844 31.382812 30 31.382812 C 46.285156 31.382812 59.488281 24.527344 59.488281 16.070312 C 59.488281 7.613281 46.285156 0.753906 30 0.753906 Z M 30 0.753906 " clip-rule="nonzero"/></clipPath><clipPath id="c9826d1101"><rect x="0" width="60" y="0" height="32"/></clipPath><clipPath id="f26267e638"><path d="M 690.511719 265.128906 L 749.496094 265.128906 L 749.496094 295.753906 L 690.511719 295.753906 Z M 690.511719 265.128906 " clip-rule="nonzero"/></clipPath><clipPath id="8f237446ce"><path d="M 720 265.128906 C 703.714844 265.128906 690.511719 271.984375 690.511719 280.441406 C 690.511719 288.898438 703.714844 295.753906 720 295.753906 C 736.285156 295.753906 749.488281 288.898438 749.488281 280.441406 C 749.488281 271.984375 736.285156 265.128906 720 265.128906 Z M 720 265.128906 " clip-rule="nonzero"/></clipPath><clipPath id="c6c77c7b68"><path d="M 0.511719 0.128906 L 59.496094 0.128906 L 59.496094 30.753906 L 0.511719 30.753906 Z M 0.511719 0.128906 " clip-rule="nonzero"/></clipPath><clipPath id="b72fa74bf0"><path d="M 30 0.128906 C 13.714844 0.128906 0.511719 6.984375 0.511719 15.441406 C 0.511719 23.898438 13.714844 30.753906 30 30.753906 C 46.285156 30.753906 59.488281 23.898438 59.488281 15.441406 C 59.488281 6.984375 46.285156 0.128906 30 0.128906 Z M 30 0.128906 " clip-rule="nonzero"/></clipPath><clipPath id="4fb04f3134"><rect x="0" width="60" y="0" height="31"/></clipPath></defs><g clip-path="url(#a740466c33)"><g clip-path="url(#71ef6944a8)"><g transform="matrix(1, 0, 0, 1, 419, 105)"><g clip-path="url(#873d0b14a1)"><g clip-path="url(#690ffdb081)"><g clip-path="url(#de08b33124)"><path fill="#4b594c" d="M -17.636719 -24 L 620.65625 -24 L 620.65625 592.613281 L -17.636719 592.613281 Z M -17.636719 -24 " fill-opacity="1" fill-rule="nonzero"/></g></g></g></g></g></g><g clip-path="url(#9fa431f613)"><g clip-path="url(#facea08258)"><g transform="matrix(1, 0, 0, 1, 544, 231)"><g clip-path="url(#4e63c5007e)"><g clip-path="url(#c70cd2974b)"><g clip-path="url(#b5cc16ee7c)"><path fill="#ffffff" d="M 0.191406 -1.953125 L 351.808594 -1.953125 L 351.808594 407.347656 L 0.191406 407.347656 Z M 0.191406 -1.953125 " fill-opacity="1" fill-rule="nonzero"/></g></g></g></g></g></g><path stroke-linecap="butt" transform="matrix(0.649541, 0.374962, -0.374962, 0.649541, 546.347787, 331.645551)" fill="none" stroke-linejoin="miter" d="M 0.000215741 2.000922 L 268.499896 1.998589 " stroke="#000000" stroke-width="4" stroke-opacity="1" stroke-miterlimit="4"/><path stroke-linecap="butt" transform="matrix(0.000000001309, -0.75, 0.75, 0.000000001309, 718.496802, 636.172188)" fill="none" stroke-linejoin="miter" d="M 0.00041733 1.999056 L 270.073348 1.999055 " stroke="#000000" stroke-width="4" stroke-opacity="1" stroke-miterlimit="4"/><path stroke-linecap="butt" transform="matrix(0.649279, -0.375415, 0.375415, 0.649279, 719.248626, 432.321766)" fill="none" stroke-linejoin="miter" d="M 0.000113419 2.001251 L 268.509123 1.997743 " stroke="#000000" stroke-width="4" stroke-opacity="1" stroke-miterlimit="4"/><g clip-path="url(#94145f227f)"><g clip-path="url(#837e9e0c2e)"><g transform="matrix(1, 0, 0, 1, 690, 374)"><g clip-path="url(#20693a97a6)"><g clip-path="url(#1be536543f)"><g clip-path="url(#c984833217)"><path fill="#404040" d="M 0.511719 0.371094 L 59.496094 0.371094 L 59.496094 31 L 0.511719 31 Z M 0.511719 0.371094 " fill-opacity="1" fill-rule="nonzero"/></g></g></g></g></g></g><g clip-path="url(#5e0ce186fb)"><g clip-path="url(#3d51c745d3)"><g clip-path="url(#115ea9adf5)"><g transform="matrix(1, 0, 0, 1, 792, 464)"><g clip-path="url(#86b2bc7cc2)"><g clip-path="url(#e974e4d444)"><g clip-path="url(#4322a65c61)"><g clip-path="url(#b75ebf7ace)"><path fill="#404040" d="M 5.851562 -2.78125 L 43.644531 4.675781 L 33.648438 55.308594 L -4.140625 47.851562 Z M 5.851562 -2.78125 " fill-opacity="1" fill-rule="nonzero"/></g></g></g></g></g></g></g></g><g clip-path="url(#7744ec2bd9)"><g clip-path="url(#3fbc89c695)"><g clip-path="url(#21100f0683)"><g transform="matrix(1, 0, 0, 1, 605, 463)"><g clip-path="url(#e00cf8334b)"><g clip-path="url(#474bab4f55)"><g clip-path="url(#7d094a37e3)"><g clip-path="url(#985d4a14bf)"><path fill="#404040" d="M -4.109375 4.195312 L 33.675781 -3.285156 L 43.703125 47.34375 L 5.914062 54.824219 Z M -4.109375 4.195312 " fill-opacity="1" fill-rule="nonzero"/></g></g></g></g></g></g></g></g><g clip-path="url(#5af8bfefc5)"><g clip-path="url(#8f1a450735)"><g clip-path="url(#69ffead615)"><g transform="matrix(1, 0, 0, 1, 554, 492)"><g clip-path="url(#7d782168f9)"><g clip-path="url(#061503c9dd)"><g clip-path="url(#1848000018)"><g clip-path="url(#00327e2534)"><path fill="#404040" d="M -3.273438 3.816406 L 32.1875 -3.203125 L 41.59375 44.304688 L 6.132812 51.328125 Z M -3.273438 3.816406 " fill-opacity="1" fill-rule="nonzero"/></g></g></g></g></g></g></g></g><g clip-path="url(#f82b4ad6c8)"><g clip-path="url(#16f2454b3c)"><g clip-path="url(#d45ef8b24a)"><g transform="matrix(1, 0, 0, 1, 661, 542)"><g clip-path="url(#3bbc0069ad)"><g clip-path="url(#4937c1d3e2)"><g clip-path="url(#0ab508293e)"><g clip-path="url(#5310083755)"><path fill="#404040" d="M -4 3.898438 L 31.460938 -3.121094 L 40.867188 44.386719 L 5.40625 51.410156 Z M -4 3.898438 " fill-opacity="1" fill-rule="nonzero"/></g></g></g></g></g></g></g></g><g clip-path="url(#17060f910c)"><g clip-path="url(#f6868c2646)"><g clip-path="url(#8cf9dab18b)"><g transform="matrix(1, 0, 0, 1, 557, 380)"><g clip-path="url(#cf3a703bd5)"><g clip-path="url(#3cb02a6bd8)"><g clip-path="url(#af023adf63)"><g clip-path="url(#41a6cfbbac)"><path fill="#404040" d="M -3.273438 4.730469 L 32.1875 -2.292969 L 41.59375 45.21875 L 6.132812 52.238281 Z M -3.273438 4.730469 " fill-opacity="1" fill-rule="nonzero"/></g></g></g></g></g></g></g></g><g clip-path="url(#3c3d57c263)"><g clip-path="url(#3390e336de)"><g clip-path="url(#743a713ef4)"><g transform="matrix(1, 0, 0, 1, 658, 425)"><g clip-path="url(#ecaa306540)"><g clip-path="url(#5c50ed4733)"><g clip-path="url(#422db0fb43)"><g clip-path="url(#c853703fe2)"><path fill="#404040" d="M -4 4.628906 L 31.460938 -2.390625 L 40.867188 45.117188 L 5.40625 52.140625 Z M -4 4.628906 " fill-opacity="1" fill-rule="nonzero"/></g></g></g></g></g></g></g></g><g clip-path="url(#9184cfe885)"><g clip-path="url(#746a2f8b04)"><g transform="matrix(1, 0, 0, 1, 690, 316)"><g clip-path="url(#c9826d1101)"><g clip-path="url(#b6bcbcafb4)"><g clip-path="url(#d839f963d7)"><path fill="#404040" d="M 0.511719 0.753906 L 59.496094 0.753906 L 59.496094 31.382812 L 0.511719 31.382812 Z M 0.511719 0.753906 " fill-opacity="1" fill-rule="nonzero"/></g></g></g></g></g></g><g clip-path="url(#f26267e638)"><g clip-path="url(#8f237446ce)"><g transform="matrix(1, 0, 0, 1, 690, 265)"><g clip-path="url(#4fb04f3134)"><g clip-path="url(#c6c77c7b68)"><g clip-path="url(#b72fa74bf0)"><path fill="#404040" d="M 0.511719 0.128906 L 59.496094 0.128906 L 59.496094 30.753906 L 0.511719 30.753906 Z M 0.511719 0.128906 " fill-opacity="1" fill-rule="nonzero"/></g></g></g></g></g></g></svg>