<svg xmlns="http://www.w3.org/2000/svg" xmlns:xlink="http://www.w3.org/1999/xlink" width="1920" zoomAndPan="magnify" viewBox="0 0 1440 809.999993" height="1080" preserveAspectRatio="xMidYMid meet" version="1.0"><defs><g/></defs><rect x="-144" width="1728" fill="#ffffff" y="-80.999999" height="971.999992" fill-opacity="1"/><rect x="-144" width="1728" fill="#57737f" y="-80.999999" height="971.999992" fill-opacity="1"/><g fill="#ff0100" fill-opacity="1"><g transform="translate(153.316409, 377.250001)"><g><path d="M 62.5625 -73.59375 C 65.257812 -73.59375 67.726562 -72.929688 69.96875 -71.609375 C 72.207031 -70.296875 73.984375 -68.519531 75.296875 -66.28125 C 76.617188 -64.039062 77.28125 -61.570312 77.28125 -58.875 L 77.28125 -44.15625 C 77.28125 -41.457031 76.617188 -38.988281 75.296875 -36.75 C 73.984375 -34.507812 72.207031 -32.726562 69.96875 -31.40625 C 67.726562 -30.09375 65.257812 -29.4375 62.5625 -29.4375 L 18.40625 -29.4375 L 18.40625 0 L 3.6875 0 L 3.6875 -73.59375 Z M 18.40625 -44.15625 L 62.5625 -44.15625 L 62.5625 -58.875 L 18.40625 -58.875 Z M 18.40625 -44.15625 "/></g></g></g><g fill="#ff0100" fill-opacity="1"><g transform="translate(234.269598, 377.250001)"><g><path d="M 77.28125 0 L 18.40625 0 C 15.707031 0 13.238281 -0.65625 11 -1.96875 C 8.757812 -3.289062 6.976562 -5.070312 5.65625 -7.3125 C 4.34375 -9.550781 3.6875 -12.019531 3.6875 -14.71875 L 3.6875 -73.59375 L 18.40625 -73.59375 L 18.40625 -14.71875 L 77.28125 -14.71875 Z M 77.28125 0 "/></g></g></g><g fill="#ff0100" fill-opacity="1"><g transform="translate(315.222788, 377.250001)"><g><path d="M 77.28125 -73.59375 L 77.28125 -58.875 L 18.40625 -58.875 L 18.40625 -44.15625 L 77.28125 -44.15625 L 77.28125 -29.4375 L 18.40625 -29.4375 L 18.40625 -14.71875 L 77.28125 -14.71875 L 77.28125 0 L 18.40625 0 C 15.707031 0 13.238281 -0.65625 11 -1.96875 C 8.757812 -3.289062 6.976562 -5.070312 5.65625 -7.3125 C 4.34375 -9.550781 3.6875 -12.019531 3.6875 -14.71875 L 3.6875 -58.875 C 3.6875 -61.570312 4.34375 -64.039062 5.65625 -66.28125 C 6.976562 -68.519531 8.757812 -70.296875 11 -71.609375 C 13.238281 -72.929688 15.707031 -73.59375 18.40625 -73.59375 Z M 77.28125 -73.59375 "/></g></g></g><g fill="#ff0100" fill-opacity="1"><g transform="translate(396.175978, 377.250001)"><g><path d="M 18.40625 -73.59375 L 62.5625 -73.59375 C 65.257812 -73.59375 67.726562 -72.929688 69.96875 -71.609375 C 72.207031 -70.296875 73.984375 -68.519531 75.296875 -66.28125 C 76.617188 -64.039062 77.28125 -61.570312 77.28125 -58.875 L 77.28125 0 L 62.5625 0 L 62.5625 -29.4375 L 18.40625 -29.4375 L 18.40625 0 L 3.6875 0 L 3.6875 -58.875 C 3.6875 -61.570312 4.34375 -64.039062 5.65625 -66.28125 C 6.976562 -68.519531 8.757812 -70.296875 11 -71.609375 C 13.238281 -72.929688 15.707031 -73.59375 18.40625 -73.59375 Z M 18.40625 -58.875 L 18.40625 -44.15625 L 62.5625 -44.15625 L 62.5625 -58.875 Z M 18.40625 -58.875 "/></g></g></g><g fill="#ff0100" fill-opacity="1"><g transform="translate(477.129168, 377.250001)"><g><path d="M 77.28125 -73.59375 L 77.28125 -58.875 L 18.40625 -58.875 L 18.40625 -44.15625 L 62.5625 -44.15625 C 65.257812 -44.15625 67.726562 -43.492188 69.96875 -42.171875 C 72.207031 -40.859375 73.984375 -39.082031 75.296875 -36.84375 C 76.617188 -34.601562 77.28125 -32.132812 77.28125 -29.4375 L 77.28125 -14.71875 C 77.28125 -12.019531 76.617188 -9.550781 75.296875 -7.3125 C 73.984375 -5.070312 72.207031 -3.289062 69.96875 -1.96875 C 67.726562 -0.65625 65.257812 0 62.5625 0 L 3.6875 0 L 3.6875 -14.71875 L 62.5625 -14.71875 L 62.5625 -29.4375 L 18.40625 -29.4375 C 15.707031 -29.4375 13.238281 -30.09375 11 -31.40625 C 8.757812 -32.726562 6.976562 -34.507812 5.65625 -36.75 C 4.34375 -38.988281 3.6875 -41.457031 3.6875 -44.15625 L 3.6875 -58.875 C 3.6875 -61.570312 4.34375 -64.039062 5.65625 -66.28125 C 6.976562 -68.519531 8.757812 -70.296875 11 -71.609375 C 13.238281 -72.929688 15.707031 -73.59375 18.40625 -73.59375 Z M 77.28125 -73.59375 "/></g></g></g><g fill="#ff0100" fill-opacity="1"><g transform="translate(558.082381, 377.250001)"><g><path d="M 77.28125 -73.59375 L 77.28125 -58.875 L 18.40625 -58.875 L 18.40625 -44.15625 L 77.28125 -44.15625 L 77.28125 -29.4375 L 18.40625 -29.4375 L 18.40625 -14.71875 L 77.28125 -14.71875 L 77.28125 0 L 18.40625 0 C 15.707031 0 13.238281 -0.65625 11 -1.96875 C 8.757812 -3.289062 6.976562 -5.070312 5.65625 -7.3125 C 4.34375 -9.550781 3.6875 -12.019531 3.6875 -14.71875 L 3.6875 -58.875 C 3.6875 -61.570312 4.34375 -64.039062 5.65625 -66.28125 C 6.976562 -68.519531 8.757812 -70.296875 11 -71.609375 C 13.238281 -72.929688 15.707031 -73.59375 18.40625 -73.59375 Z M 77.28125 -73.59375 "/></g></g></g><g fill="#ff0100" fill-opacity="1"><g transform="translate(639.035547, 377.250001)"><g/></g></g><g fill="#ff0100" fill-opacity="1"><g transform="translate(679.512154, 377.250001)"><g><path d="M 77.28125 -73.59375 L 77.28125 -58.875 L 18.40625 -58.875 L 18.40625 -44.15625 L 62.5625 -44.15625 C 65.257812 -44.15625 67.726562 -43.492188 69.96875 -42.171875 C 72.207031 -40.859375 73.984375 -39.082031 75.296875 -36.84375 C 76.617188 -34.601562 77.28125 -32.132812 77.28125 -29.4375 L 77.28125 -14.71875 C 77.28125 -12.019531 76.617188 -9.550781 75.296875 -7.3125 C 73.984375 -5.070312 72.207031 -3.289062 69.96875 -1.96875 C 67.726562 -0.65625 65.257812 0 62.5625 0 L 3.6875 0 L 3.6875 -14.71875 L 62.5625 -14.71875 L 62.5625 -29.4375 L 18.40625 -29.4375 C 15.707031 -29.4375 13.238281 -30.09375 11 -31.40625 C 8.757812 -32.726562 6.976562 -34.507812 5.65625 -36.75 C 4.34375 -38.988281 3.6875 -41.457031 3.6875 -44.15625 L 3.6875 -58.875 C 3.6875 -61.570312 4.34375 -64.039062 5.65625 -66.28125 C 6.976562 -68.519531 8.757812 -70.296875 11 -71.609375 C 13.238281 -72.929688 15.707031 -73.59375 18.40625 -73.59375 Z M 77.28125 -73.59375 "/></g></g></g><g fill="#ff0100" fill-opacity="1"><g transform="translate(760.46532, 377.250001)"><g><path d="M 77.28125 -73.59375 L 77.28125 -58.875 L 18.40625 -58.875 L 18.40625 -44.15625 L 77.28125 -44.15625 L 77.28125 -29.4375 L 18.40625 -29.4375 L 18.40625 -14.71875 L 77.28125 -14.71875 L 77.28125 0 L 18.40625 0 C 15.707031 0 13.238281 -0.65625 11 -1.96875 C 8.757812 -3.289062 6.976562 -5.070312 5.65625 -7.3125 C 4.34375 -9.550781 3.6875 -12.019531 3.6875 -14.71875 L 3.6875 -58.875 C 3.6875 -61.570312 4.34375 -64.039062 5.65625 -66.28125 C 6.976562 -68.519531 8.757812 -70.296875 11 -71.609375 C 13.238281 -72.929688 15.707031 -73.59375 18.40625 -73.59375 Z M 77.28125 -73.59375 "/></g></g></g><g fill="#ff0100" fill-opacity="1"><g transform="translate(841.418533, 377.250001)"><g><path d="M 77.28125 0 L 18.40625 0 C 15.707031 0 13.238281 -0.65625 11 -1.96875 C 8.757812 -3.289062 6.976562 -5.070312 5.65625 -7.3125 C 4.34375 -9.550781 3.6875 -12.019531 3.6875 -14.71875 L 3.6875 -73.59375 L 18.40625 -73.59375 L 18.40625 -14.71875 L 77.28125 -14.71875 Z M 77.28125 0 "/></g></g></g><g fill="#ff0100" fill-opacity="1"><g transform="translate(922.371699, 377.250001)"><g><path d="M 77.28125 -73.59375 L 77.28125 -58.875 L 18.40625 -58.875 L 18.40625 -44.15625 L 77.28125 -44.15625 L 77.28125 -29.4375 L 18.40625 -29.4375 L 18.40625 -14.71875 L 77.28125 -14.71875 L 77.28125 0 L 18.40625 0 C 15.707031 0 13.238281 -0.65625 11 -1.96875 C 8.757812 -3.289062 6.976562 -5.070312 5.65625 -7.3125 C 4.34375 -9.550781 3.6875 -12.019531 3.6875 -14.71875 L 3.6875 -58.875 C 3.6875 -61.570312 4.34375 -64.039062 5.65625 -66.28125 C 6.976562 -68.519531 8.757812 -70.296875 11 -71.609375 C 13.238281 -72.929688 15.707031 -73.59375 18.40625 -73.59375 Z M 77.28125 -73.59375 "/></g></g></g><g fill="#ff0100" fill-opacity="1"><g transform="translate(1003.324912, 377.250001)"><g><path d="M 77.28125 0 L 18.40625 0 C 15.707031 0 13.238281 -0.65625 11 -1.96875 C 8.757812 -3.289062 6.976562 -5.070312 5.65625 -7.3125 C 4.34375 -9.550781 3.6875 -12.019531 3.6875 -14.71875 L 3.6875 -58.875 C 3.6875 -61.570312 4.34375 -64.039062 5.65625 -66.28125 C 6.976562 -68.519531 8.757812 -70.296875 11 -71.609375 C 13.238281 -72.929688 15.707031 -73.59375 18.40625 -73.59375 L 77.28125 -73.59375 L 77.28125 -58.875 L 18.40625 -58.875 L 18.40625 -14.71875 L 77.28125 -14.71875 Z M 77.28125 0 "/></g></g></g><g fill="#ff0100" fill-opacity="1"><g transform="translate(1084.278124, 377.250001)"><g><path d="M 77.28125 -73.59375 L 77.28125 -58.875 L 47.84375 -58.875 L 47.84375 0 L 33.125 0 L 33.125 -58.875 L 3.6875 -58.875 L 3.6875 -73.59375 Z M 77.28125 -73.59375 "/></g></g></g><g fill="#ff0100" fill-opacity="1"><g transform="translate(1165.231245, 377.250001)"><g/></g></g><g fill="#ff0100" fill-opacity="1"><g transform="translate(1205.707897, 377.250001)"><g><path d="M 18.40625 -73.59375 L 62.5625 -73.59375 C 65.257812 -73.59375 67.726562 -72.929688 69.96875 -71.609375 C 72.207031 -70.296875 73.984375 -68.519531 75.296875 -66.28125 C 76.617188 -64.039062 77.28125 -61.570312 77.28125 -58.875 L 77.28125 0 L 62.5625 0 L 62.5625 -29.4375 L 18.40625 -29.4375 L 18.40625 0 L 3.6875 0 L 3.6875 -58.875 C 3.6875 -61.570312 4.34375 -64.039062 5.65625 -66.28125 C 6.976562 -68.519531 8.757812 -70.296875 11 -71.609375 C 13.238281 -72.929688 15.707031 -73.59375 18.40625 -73.59375 Z M 18.40625 -58.875 L 18.40625 -44.15625 L 62.5625 -44.15625 L 62.5625 -58.875 Z M 18.40625 -58.875 "/></g></g></g><g fill="#ff0100" fill-opacity="1"><g transform="translate(558.082013, 505.499995)"><g><path d="M 77.28125 -58.875 L 77.28125 -44.15625 C 77.28125 -42.132812 76.554688 -40.398438 75.109375 -38.953125 C 73.671875 -37.515625 71.941406 -36.796875 69.921875 -36.796875 C 71.941406 -36.796875 73.671875 -36.070312 75.109375 -34.625 C 76.554688 -33.1875 77.28125 -31.457031 77.28125 -29.4375 L 77.28125 -14.71875 C 77.28125 -12.082031 76.617188 -9.644531 75.296875 -7.40625 C 73.984375 -5.164062 72.222656 -3.367188 70.015625 -2.015625 C 67.804688 -0.671875 65.320312 0 62.5625 0 L 3.6875 0 L 3.6875 -73.59375 L 62.5625 -73.59375 C 65.320312 -73.59375 67.804688 -72.914062 70.015625 -71.5625 C 72.222656 -70.21875 73.984375 -68.441406 75.296875 -66.234375 C 76.617188 -64.023438 77.28125 -61.570312 77.28125 -58.875 Z M 62.5625 -58.875 L 18.40625 -58.875 L 18.40625 -44.15625 L 62.5625 -44.15625 Z M 18.40625 -14.71875 L 62.5625 -14.71875 L 62.5625 -29.4375 L 18.40625 -29.4375 Z M 18.40625 -14.71875 "/></g></g></g><g fill="#ff0100" fill-opacity="1"><g transform="translate(639.035203, 505.499995)"><g><path d="M 62.5625 0 L 18.40625 0 C 15.707031 0 13.238281 -0.65625 11 -1.96875 C 8.757812 -3.289062 6.976562 -5.070312 5.65625 -7.3125 C 4.34375 -9.550781 3.6875 -12.019531 3.6875 -14.71875 L 3.6875 -58.875 C 3.6875 -61.570312 4.34375 -64.039062 5.65625 -66.28125 C 6.976562 -68.519531 8.757812 -70.296875 11 -71.609375 C 13.238281 -72.929688 15.707031 -73.59375 18.40625 -73.59375 L 62.5625 -73.59375 C 65.257812 -73.59375 67.726562 -72.929688 69.96875 -71.609375 C 72.207031 -70.296875 73.984375 -68.519531 75.296875 -66.28125 C 76.617188 -64.039062 77.28125 -61.570312 77.28125 -58.875 L 77.28125 -14.71875 C 77.28125 -12.082031 76.617188 -9.644531 75.296875 -7.40625 C 73.984375 -5.164062 72.222656 -3.367188 70.015625 -2.015625 C 67.804688 -0.671875 65.320312 0 62.5625 0 Z M 18.40625 -58.875 L 18.40625 -14.71875 L 62.5625 -14.71875 L 62.5625 -58.875 Z M 18.40625 -58.875 "/></g></g></g><g fill="#ff0100" fill-opacity="1"><g transform="translate(719.988393, 505.499995)"><g><path d="M 62.5625 0 L 18.40625 0 C 15.707031 0 13.238281 -0.65625 11 -1.96875 C 8.757812 -3.289062 6.976562 -5.070312 5.65625 -7.3125 C 4.34375 -9.550781 3.6875 -12.019531 3.6875 -14.71875 L 3.6875 -58.875 C 3.6875 -61.570312 4.34375 -64.039062 5.65625 -66.28125 C 6.976562 -68.519531 8.757812 -70.296875 11 -71.609375 C 13.238281 -72.929688 15.707031 -73.59375 18.40625 -73.59375 L 62.5625 -73.59375 C 65.257812 -73.59375 67.726562 -72.929688 69.96875 -71.609375 C 72.207031 -70.296875 73.984375 -68.519531 75.296875 -66.28125 C 76.617188 -64.039062 77.28125 -61.570312 77.28125 -58.875 L 77.28125 -14.71875 C 77.28125 -12.082031 76.617188 -9.644531 75.296875 -7.40625 C 73.984375 -5.164062 72.222656 -3.367188 70.015625 -2.015625 C 67.804688 -0.671875 65.320312 0 62.5625 0 Z M 18.40625 -58.875 L 18.40625 -14.71875 L 62.5625 -14.71875 L 62.5625 -58.875 Z M 18.40625 -58.875 "/></g></g></g><g fill="#ff0100" fill-opacity="1"><g transform="translate(800.941583, 505.499995)"><g><path d="M 18.40625 0 L 3.6875 0 L 3.6875 -66.234375 C 3.6875 -68.265625 4.40625 -70 5.84375 -71.4375 C 7.28125 -72.875 9.015625 -73.59375 11.046875 -73.59375 C 13.066406 -73.59375 14.8125 -72.859375 16.28125 -71.390625 L 62.5625 -25.109375 L 62.5625 -73.59375 L 77.28125 -73.59375 L 77.28125 -7.359375 C 77.28125 -5.335938 76.554688 -3.601562 75.109375 -2.15625 C 73.671875 -0.71875 71.941406 0 69.921875 0 C 67.898438 0 66.148438 -0.734375 64.671875 -2.203125 L 18.40625 -48.484375 Z M 18.40625 0 "/></g></g></g></svg>